<?xml version="1.0" encoding="UTF-8" standalone="no"?>
<!-- Created with Inkscape (http://www.inkscape.org/) -->

<svg
   xmlns:dc="http://purl.org/dc/elements/1.1/"
   xmlns:cc="http://creativecommons.org/ns#"
   xmlns:rdf="http://www.w3.org/1999/02/22-rdf-syntax-ns#"
   xmlns:svg="http://www.w3.org/2000/svg"
   xmlns="http://www.w3.org/2000/svg"
   version="1.1"
   width="451.82126"
   height="244.765"
   id="svg157465">
  <defs
     id="defs157467" />
  <metadata
     id="metadata157470">
    <rdf:RDF>
      <cc:Work
         rdf:about="">
        <dc:format>image/svg+xml</dc:format>
        <dc:type
           rdf:resource="http://purl.org/dc/dcmitype/StillImage" />
        <dc:title></dc:title>
      </cc:Work>
    </rdf:RDF>
  </metadata>
  <path
     d="m 0,0 451.82125,0 0,246.765 L 0,246.765 z"
     id="path81768"
     style="fill:#ffffff;stroke:none" />
  <path
     d="m 51.07713,173.7025 372.17,0"
     id="path81778"
     style="fill:none;stroke:#000000;stroke-width:0.16435999;stroke-linecap:butt;stroke-linejoin:round;stroke-miterlimit:3.52800012;stroke-opacity:1;stroke-dasharray:none" />
  <path
     d="m 51.07713,155.69625 372.17,0"
     id="path81780"
     style="fill:none;stroke:#000000;stroke-width:0.16435999;stroke-linecap:butt;stroke-linejoin:round;stroke-miterlimit:3.52800012;stroke-opacity:1;stroke-dasharray:none" />
  <path
     d="m 51.07713,137.69125 372.17,0"
     id="path81782"
     style="fill:none;stroke:#000000;stroke-width:0.16435999;stroke-linecap:butt;stroke-linejoin:round;stroke-miterlimit:3.52800012;stroke-opacity:1;stroke-dasharray:none" />
  <path
     d="m 51.07713,119.685 372.17,0"
     id="path81784"
     style="fill:none;stroke:#000000;stroke-width:0.16435999;stroke-linecap:butt;stroke-linejoin:round;stroke-miterlimit:3.52800012;stroke-opacity:1;stroke-dasharray:none" />
  <path
     d="m 51.07713,101.625 372.17,0"
     id="path81786"
     style="fill:none;stroke:#000000;stroke-width:0.16435999;stroke-linecap:butt;stroke-linejoin:round;stroke-miterlimit:3.52800012;stroke-opacity:1;stroke-dasharray:none" />
  <path
     d="m 51.07713,83.61875 372.17,0"
     id="path81788"
     style="fill:none;stroke:#000000;stroke-width:0.16435999;stroke-linecap:butt;stroke-linejoin:round;stroke-miterlimit:3.52800012;stroke-opacity:1;stroke-dasharray:none" />
  <path
     d="m 51.07713,65.6125 372.17,0"
     id="path81790"
     style="fill:none;stroke:#000000;stroke-width:0.16435999;stroke-linecap:butt;stroke-linejoin:round;stroke-miterlimit:3.52800012;stroke-opacity:1;stroke-dasharray:none" />
  <path
     d="m 51.07713,47.55375 372.17,0"
     id="path81792"
     style="fill:none;stroke:#000000;stroke-width:0.16435999;stroke-linecap:butt;stroke-linejoin:round;stroke-miterlimit:3.52800012;stroke-opacity:1;stroke-dasharray:none" />
  <path
     d="m 51.07713,124.11875 c 0,-0.10625 0.045,-0.42625 0.045,-0.64 0,-0.21375 0,-0.32125 0.045,-0.58875 0.045,-0.32 0.09,-0.80125 0.13375,-1.12125 0.045,-0.32125 0.09,-0.5875 0.09,-0.90875 0.045,-0.2675 0.135,-0.53375 0.18,-0.80125 0.045,-0.2675 0.0887,-0.53375 0.13375,-0.80125 0.045,-0.21375 0.045,-0.48125 0.09,-0.74875 0.045,-0.21375 0.045,-0.37375 0.09,-0.5875 0.045,-0.21375 0.09,-0.37375 0.13375,-0.64125 0.045,-0.2675 0.09,-0.5875 0.18,-0.855 0.045,-0.26625 0.135,-0.53375 0.22375,-0.80125 0.045,-0.2675 0.135,-0.4275 0.18,-0.695 0.045,-0.21375 0.09,-0.48 0.13375,-0.7475 0.09,-0.21375 0.135,-0.37375 0.225,-0.5875 0.045,-0.21375 0.09,-0.4275 0.17875,-0.64125 0.045,-0.21375 0.135,-0.4275 0.18,-0.64125 0.09,-0.21375 0.17875,-0.4275 0.22375,-0.695 0.09,-0.21375 0.18,-0.48 0.26875,-0.69375 0.09,-0.2675 0.18,-0.48125 0.27,-0.695 0.0888,-0.21375 0.13375,-0.4275 0.17875,-0.64125 0.09,-0.21375 0.18,-0.4275 0.26875,-0.64125 0.09,-0.21375 0.225,-0.4275 0.315,-0.695 0.13375,-0.21375 0.17875,-0.4275 0.31375,-0.64125 0.0888,-0.26625 0.22375,-0.48 0.31375,-0.69375 0.09,-0.21375 0.17875,-0.37375 0.31375,-0.5875 0.09,-0.21375 0.22375,-0.375 0.31375,-0.64125 0.09,-0.21375 0.22375,-0.4275 0.31375,-0.64125 0.135,-0.21375 0.26875,-0.4275 0.40375,-0.64125 0.135,-0.21375 0.26875,-0.4275 0.40375,-0.64125 0.09,-0.21375 0.22375,-0.4275 0.35875,-0.695 0.135,-0.21375 0.26875,-0.4275 0.44875,-0.64125 0.13375,-0.21375 0.26875,-0.37375 0.40375,-0.5875 0.13375,-0.21375 0.26875,-0.4275 0.4475,-0.64125 0.135,-0.21375 0.35875,-0.4275 0.53875,-0.64125 0.135,-0.16 0.31375,-0.4275 0.44875,-0.5875 0.17875,-0.21375 0.35875,-0.37375 0.5375,-0.5875 0.18,-0.21375 0.31375,-0.4275 0.49375,-0.64125 0.17875,-0.21375 0.35875,-0.37375 0.5375,-0.5875 0.225,-0.21375 0.49375,-0.4275 0.6725,-0.64125 0.225,-0.21375 0.40375,-0.4275 0.58375,-0.64125 0.22375,-0.21375 0.44875,-0.4275 0.6725,-0.64125 0.22375,-0.16 0.49375,-0.37375 0.7175,-0.535 0.22375,-0.2125 0.40375,-0.42625 0.6275,-0.64 0.225,-0.21375 0.49375,-0.375 0.7625,-0.58875 0.26875,-0.16 0.49375,-0.37375 0.7625,-0.5875 0.26875,-0.21375 0.5825,-0.4275 0.8525,-0.64125 0.31375,-0.21375 0.5825,-0.4275 0.89625,-0.64125 0.26875,-0.21375 0.5825,-0.4275 0.8975,-0.64125 0.31375,-0.16 0.6725,-0.37375 0.98625,-0.53375 0.35875,-0.21375 0.6725,-0.4275 1.03125,-0.64125 0.31375,-0.21375 0.5825,-0.37375 0.94125,-0.5875 0.35875,-0.16 0.7175,-0.37375 1.07625,-0.5875 0.40375,-0.21375 0.8525,-0.4275 1.25625,-0.64125 0.44875,-0.21375 0.85125,-0.375 1.3,-0.5875 0.44875,-0.16125 0.9425,-0.375 1.39,-0.535 0.44875,-0.21375 0.8975,-0.37375 1.34625,-0.48125 0.4475,-0.10625 0.89625,-0.21375 1.39,-0.26625 0.4475,-0.1075 0.89625,-0.16125 1.39,-0.21375 0.44875,0 0.89625,-0.0538 1.39,-0.1075 0.44875,0 0.89625,0 1.39,-0.0537 0.44875,0 0.8525,0 1.3,-0.0525 0.49375,0 0.9425,0 1.39125,-0.0538 0.4925,0 0.94125,-0.0537 1.39,-0.1075 0.4925,-0.0525 0.94125,-0.0525 1.39,-0.0525 0.49375,0 0.94125,-0.0538 1.39,-0.0538 0.44875,0 0.8975,-0.0537 1.345,-0.0537 0.44875,-0.0537 0.9425,-0.0537 1.39,-0.0537 0.44875,-0.0525 0.9425,-0.10625 1.39125,-0.10625 0.4475,-0.0537 0.94125,-0.0537 1.39,-0.0537 0.4475,-0.0525 0.89625,-0.10625 1.345,-0.16 0.44875,0 0.89625,-0.0538 1.39,-0.10625 0.44875,0 0.8975,-0.0537 1.39,-0.1075 0.44875,-0.0538 0.8975,-0.0538 1.345,-0.10625 0.49375,-0.0537 0.9425,-0.0537 1.39125,-0.1075 0.4925,-0.0538 0.89625,-0.0538 1.345,-0.10625 0.44875,-0.0538 0.94125,-0.16125 1.39,-0.16125 0.49375,-0.0525 0.94125,-0.10625 1.39,-0.16 0.44875,0 0.94125,-0.0537 1.39,-0.10625 0.44875,0 0.9425,-0.0538 1.39,-0.1075 0.44875,-0.0537 0.8975,-0.10625 1.34625,-0.16 0.4475,-0.0537 0.89625,-0.1075 1.39,-0.16 0.4475,-0.0538 0.89625,-0.1075 1.39,-0.1075 0.44875,-0.0537 0.89625,-0.10625 1.39,-0.16 0.44875,0 0.8975,-0.0538 1.39,-0.1075 0.44875,0 0.8525,-0.0525 1.3,-0.10625 0.49375,-0.0538 0.9425,-0.1075 1.39125,-0.16 0.4925,-0.0537 0.94125,-0.0537 1.39,-0.1075 0.4925,-0.0525 0.94125,-0.10625 1.39,-0.10625 0.49375,-0.0537 0.94125,-0.1075 1.39,-0.1075 0.44875,-0.0525 0.8975,-0.10625 1.345,-0.16 0.44875,0 0.9425,0 1.39,-0.0537 0.44875,0 0.9425,-0.0525 1.39125,-0.10625 0.4475,0 0.94125,0 1.39,-0.0537 0.4475,0 0.89625,-0.0537 1.345,-0.10625 0.44875,-0.0538 0.89625,-0.0538 1.39,-0.1075 0.44875,-0.0537 0.8975,-0.10625 1.39,-0.10625 0.44875,-0.0538 0.8975,-0.0538 1.39,-0.0538 0.44875,-0.0537 0.8975,-0.1075 1.34625,-0.1075 0.4925,-0.0525 0.94125,-0.10625 1.39,-0.16 0.4925,0 0.89625,-0.0537 1.345,-0.10625 0.44875,0 0.94125,0 1.39,-0.0537 0.49375,0 0.94125,-0.0538 1.39,-0.1075 0.44875,0 0.9425,0 1.39,-0.0525 0.44875,0 0.9425,-0.1075 1.39,-0.1075 0.44875,-0.0537 0.8975,-0.0537 1.34625,-0.0537 0.4475,0 0.89625,-0.0525 1.39,-0.0525 0.44875,-0.0537 0.89625,-0.0537 1.39,-0.0537 0.44875,-0.0538 0.8975,-0.0538 1.39,-0.0538 0.44875,-0.0537 0.8975,-0.0537 1.39,-0.0537 0.44875,-0.0525 0.8525,-0.0525 1.30125,-0.0525 0.4925,-0.0537 0.94125,-0.0537 1.39,-0.1075 0.4925,0 0.94125,0.0537 1.39,0 0.49375,0 0.94125,-0.0538 1.39,-0.10625 0.49375,0 0.94125,0.0525 1.39,0 0.44875,0 0.8975,-0.0537 1.345,-0.0537 0.44875,0 0.9425,0 1.39125,0 0.4475,0 0.94125,-0.0537 1.39,-0.0537 0.4475,0 0.94125,0 1.39,0 0.44875,0 0.94125,0 1.39,0 0.44875,0 0.89625,-0.0538 1.345,-0.0538 0.44875,0 0.8975,0 1.39,0 0.44875,0 0.8975,0 1.39,0 0.44875,0 0.8975,0 1.34625,0 0.4925,0 0.94125,0 1.39,0 0.4925,0 0.89625,0 1.345,0 0.44875,0 0.94125,0 1.39,0 0.49375,0 0.9425,-0.0525 1.39,-0.0525 0.44875,0 0.9425,0 1.39125,0 0.4475,0 0.94125,0 1.39,0 0.4475,0 0.89625,0 1.345,0 0.44875,0 0.89625,0 1.39,0 0.44875,0 0.8975,0 1.39,0 0.44875,0 0.8975,0 1.39,0 0.44875,0 0.8975,0 1.39,0 0.44875,0 0.8525,-0.0537 1.30125,-0.0537 0.4925,0 0.94125,0 1.39,0 0.49375,0 0.94125,0 1.39,0 0.49375,0 0.94125,0 1.39,0 0.44875,0 0.8975,0 1.345,0 0.44875,0 0.9425,0 1.39125,0 0.4475,0 0.94125,0 1.39,0 0.4475,0 0.94125,-0.0537 1.39,-0.0537 0.44875,0 0.94125,0 1.39,0 0.44875,0 0.89625,0 1.345,0 0.44875,0 0.8975,0 1.39,0 0.44875,0 0.8975,0 1.39,0 0.44875,0 0.8975,0 1.39125,0 0.4475,0 0.89625,-0.0525 1.345,-0.0525 0.4925,0 0.89625,0 1.345,0 0.44875,0 0.94125,0 1.39,0 0.49375,0 0.9425,0 1.39,0 0.49375,0 0.9425,0 1.39125,0 0.4475,0 0.94125,-0.0538 1.39,-0.0538 0.4475,0 0.89625,0 1.345,0 0.44875,0 0.94125,0 1.39,0 0.44875,0 0.8975,0 1.39,0 0.44875,0 0.8975,-0.0537 1.39,-0.0537 0.44875,0 0.9425,0 1.39,0 0.44875,0 0.8525,0 1.34625,0 0.4475,0 0.89625,0 1.345,0 0.49375,0 0.94125,-0.0537 1.39,-0.0537 0.49375,-0.0525 0.94125,0 1.39,0 0.49375,0 0.9425,0 1.39,0 0.44875,-0.0525 0.8975,-0.0525 1.34625,-0.0525 0.4475,-0.0537 0.94125,0 1.39,0 0.4475,0 0.94125,0 1.39,0 0.44875,-0.0537 0.94125,-0.0537 1.39,-0.0537 0.44875,-0.0538 0.94125,0 1.39,0 0.44875,0 0.9425,0 1.39,0 0.44875,-0.0538 0.8975,-0.0538 1.34625,-0.1075 0.4475,0 0.89625,0.0537 1.39,0 0.4475,0 0.89625,0 1.39,-0.0525 0.44875,0 0.89625,0.0525 1.345,0 0.49375,0 0.94125,0 1.39,-0.0537 0.49375,0 0.8975,0.0537 1.345,0 0.44875,0 0.9425,0 1.39125,-0.0538 0.4925,0 0.94125,-0.0537 1.39,-0.0537 0.4475,0 0.94125,0 1.39,0 0.44875,0 0.89625,0 1.345,0 0.44875,0 0.94125,-0.0525 1.39,-0.0525 0.44875,0 0.8975,-0.0537 1.39,-0.0537 0.44875,0 0.8975,0 1.39,0 0.44875,0 0.9425,-0.0538 1.39125,-0.0538 0.4475,0 0.85125,0 1.345,0 0.44875,0 0.89625,-0.0537 1.345,-0.0537 0.49375,0 0.94125,-0.0525 1.39,-0.0525 0.49375,0 0.9425,0 1.39,0 0.49375,0 0.9425,-0.0537 1.39,-0.0537 0.44875,-0.0538 0.8975,-0.0538 1.34625,-0.0538 0.4475,-0.0537 0.94125,-0.0537 1.39,-0.0537 0.44875,-0.0525 0.94125,0 1.39,0 0.44875,-0.0525 0.94125,-0.0525 1.39,-0.0525 0.44875,-0.0537 0.9425,-0.0537 1.39,-0.0537 0.44875,-0.0537 0.8975,-0.0537 1.34625,-0.1075 0.4475,0 0.89625,0 1.39,-0.0525 0.4475,0 0.89625,0 1.39,-0.0537 0.44875,0 0.89625,-0.0537 1.39,-0.0537 0.44875,0 0.89625,0 1.345,0 0.49375,0 0.8975,0 1.345,-0.0538 0.44875,0 0.9425,-0.0525 1.39125,-0.0525 0.4925,0 0.94125,-0.0537 1.39,-0.0537 0.4925,0 0.94125,-0.0537 1.39,-0.0537 0.44875,0 0.89625,-0.0538 1.345,-0.0538 0.44875,0 0.94125,0 1.39,0 0.44875,0 0.9425,-0.0525 1.39,-0.0525 0.44875,0 0.8975,-0.0537 1.39,-0.0537 0.44875,0 0.9425,0 1.39125,0 0.4475,0 0.85125,-0.0537 1.345,-0.0537 0.44875,0 0.89625,0 1.39,0 0.44875,0 0.89625,-0.0538 1.345,-0.0538 0.49375,-0.0525 0.9425,0 1.39,0 0.49375,0 0.9425,0 1.39,0 0.44875,-0.0525 0.8975,-0.0525 1.34625,-0.0525 0.4475,-0.0538 0.94125,0 1.39,0 0.44875,0 0.94125,0 1.39,0 0.44875,-0.0538 0.94125,-0.0538 1.39,-0.0538 0.44875,-0.0537 0.9425,0 1.39,0 0.44875,0 0.8975,0 1.34625,0 0.4475,-0.0537 0.89625,-0.0537 1.39,-0.1075 0.4475,0 0.89625,0 1.39,0 0.44875,0 0.89625,0.0538 1.39,0 0.44875,0 0.89625,0 1.39,-0.0525 0.44875,0 0.8975,0 1.345,0 0.49375,0 0.8975,0 1.34625,0 0.4475,0 0.94125,0.0525 1.39,0 0.4925,0 0.94125,0 1.39,-0.0538 0.4925,0 0.94125,0 1.39,0 0.44875,0 0.94125,0 1.39,0 0.44875,0 0.8975,0.0538 1.345,0 0.44875,0 0.9425,-0.0537 1.39,-0.0537 0.44875,0 0.8975,0 1.39125,0 0.4475,0 0.89625,0 1.39,0 0.4475,0 0.94125,-0.0525 1.39,-0.0525 0.44875,0 0.85125,0 1.345,0 0.44875,0 0.8975,0 1.345,0 0.49375,0 0.9425,-0.0537 1.39,-0.0537 0.49375,0 0.9425,0 1.39125,0 0.4925,0 0.94125,0 1.39,0 0.44875,0 0.89625,-0.0538 1.345,-0.0538 0.44875,0 0.94125,0 1.39,0 0.44875,0 0.9425,0 1.39,0 0.44875,0 0.9425,-0.0537 1.39,-0.0537 0.44875,0 0.9425,0 1.39125,0 0.4475,0 0.89625,-0.0525 1.345,-0.0525 0.44875,0 0.89625,0 1.39,0 0.44875,0 0.89625,-0.0537 1.39,-0.0537 0.44875,0 0.8975,0 1.39,0 0.44875,0 0.8525,-0.0538 1.30125,-0.0538 0.4925,0 0.94125,0 1.39,0 0.4925,0 0.94125,-0.0537 1.39,-0.0537 0.4925,0 0.94125,0 1.39,0 0.49375,0 0.94125,-0.0525 1.39,-0.0525 0.44875,-0.0537 0.8975,-0.0537 1.345,-0.0537 0.44875,-0.0537 0.9425,0 1.39,0 0.44875,-0.0537 0.9425,-0.0537 1.39125,-0.0537 0.4475,-0.0538 0.89625,-0.0538 1.39,-0.10625 0.4475,0 0.94125,0 1.39,-0.0537 0.44875,0 0.85125,0 1.345,-0.0537 0.44875,0 0.8975,0 1.39,-0.0538 0.44875,0 0.8975,0 1.345,-0.0525 0.49375,0 0.9425,-0.0537 1.39125,-0.0537 0.4925,0 0.94125,0 1.39,-0.0537 0.44875,0 0.89625,-0.10625 1.345,-0.10625 0.44875,-0.0537 0.94125,-0.0537 1.39,-0.0537 0.44875,-0.0537 0.9425,-0.1075 1.39,-0.1075 0.44875,-0.0525 0.9425,-0.10625 1.39,-0.10625 0.44875,-0.0537 0.8975,-0.16 1.34625,-0.21375 0.4475,-0.0537 0.89625,-0.1075 1.39,-0.16 0.44875,-0.0538 0.89625,-0.1075 1.39,-0.16125 0.44875,-0.0525 0.89625,-0.16 1.39,-0.21375 0.44875,-0.10625 0.8975,-0.2125 1.39,-0.32 0.44875,-0.10625 0.8525,-0.21375 1.30125,-0.32 0.4925,-0.1075 0.94125,-0.2675 1.39,-0.48125 0.4925,-0.16 0.98625,-0.4275 1.345,-0.5875 0.40375,-0.21375 0.6275,-0.375 0.94125,-0.58875 0.27,-0.21375 0.58375,-0.42625 0.8075,-0.64 0.22375,-0.21375 0.31375,-0.375 0.49375,-0.58875 0.17875,-0.21375 0.40375,-0.4275 0.5375,-0.64125 0.135,-0.21375 0.225,-0.37375 0.35875,-0.5875 0.09,-0.21375 0.225,-0.37375 0.31375,-0.64125 0.09,-0.21375 0.18,-0.4275 0.27,-0.64125 0.13375,-0.21375 0.22375,-0.4275 0.31375,-0.64125 0.0888,-0.26625 0.17875,-0.5875 0.22375,-0.80125 0.09,-0.21375 0.135,-0.37375 0.18,-0.64125 0.0888,-0.21375 0.0888,-0.48 0.17875,-0.7475 0.045,-0.2675 0.135,-0.5875 0.18,-0.855 0.0438,-0.21375 0.0438,-0.37375 0.0888,-0.5875 0.045,-0.21375 0.09,-0.48125 0.135,-0.695 0.045,-0.2675 0.135,-0.48125 0.135,-0.7475 0.0438,-0.2675 0.0888,-0.5875 0.13375,-0.855 0,-0.2675 0.09,-0.535 0.135,-0.855 0.045,-0.32125 0.09,-0.80125 0.09,-0.96125 0,-0.16125 0,0 0,0"
     id="path81794"
     style="fill:none;stroke:#00ff00;stroke-width:3;stroke-linecap:butt;stroke-linejoin:miter;stroke-miterlimit:3.52800012;stroke-opacity:1;stroke-dasharray:none" />
  <path
     d="m 51.07713,72.23875 c 0,0.16 0,0.48 0.045,0.7475 0.045,0.32125 0.09,0.74875 0.135,1.015 0.0437,0.32125 0.0437,0.535 0.0887,0.74875 0.045,0.26625 0.135,0.53375 0.225,0.7475 0.045,0.2675 0.13375,0.48125 0.22375,0.695 0.09,0.21375 0.18,0.48125 0.26875,0.69375 0.135,0.21375 0.31375,0.4275 0.44875,0.58875 0.135,0.21375 0.22375,0.4275 0.40375,0.64125 0.135,0.21375 0.26875,0.4275 0.44875,0.64125 0.17875,0.21375 0.35875,0.42625 0.5825,0.64 0.22375,0.16125 0.44875,0.375 0.7175,0.535 0.26875,0.21375 0.49375,0.4275 0.7625,0.64125 0.26875,0.21375 0.5825,0.4275 0.89625,0.64125 0.35875,0.21375 0.7175,0.37375 1.12125,0.53375 0.40375,0.21375 0.8975,0.4275 1.34625,0.5875 0.4475,0.16125 0.89625,0.32125 1.39,0.48125 0.44875,0.1075 0.89625,0.21375 1.39,0.32125 0.44875,0.10625 0.89625,0.16 1.39,0.21375 0.44875,0.10625 0.8975,0.16 1.345,0.21375 0.49375,0 0.8975,0 1.34625,0.0525 0.4475,0 0.94125,0.0538 1.39,0.1075 0.4925,0 0.94125,0.0538 1.39,0.0538 0.4925,0 0.94125,0 1.39,0 0.44875,0 0.89625,0 1.345,0 0.44875,0 0.9425,0.0525 1.39,0.0525 0.44875,0 0.9425,0 1.39,0 0.44875,0 0.8975,0 1.39125,0 0.4475,0 0.94125,0 1.39,0 0.4475,0 0.85125,0.0538 1.345,0.0538 0.44875,0 0.89625,0 1.39,0 0.44875,0 0.8975,0 1.345,0 0.49375,0 0.9425,0 1.39,0 0.49375,0 0.9425,0.0537 1.39125,0.0537 0.4475,0 0.89625,0 1.345,0 0.44875,0 0.94125,0 1.39,0 0.44875,0 0.94125,0 1.39,0 0.44875,0 0.9425,0 1.39,0 0.44875,0 0.9425,0.0525 1.39,0.0525 0.44875,0 0.8975,0 1.34625,0 0.4475,0 0.89625,0 1.39,0 0.44875,0 0.89625,0.0537 1.39,0.0537 0.44875,0 0.89625,0 1.39,0 0.44875,0 0.8525,0 1.3,0 0.49375,0 0.9425,0.0538 1.39125,0.0538 0.4925,0 0.94125,0 1.39,0 0.4925,0 0.94125,0 1.39,0 0.4925,0 0.94125,0.0537 1.39,0.0537 0.49375,0 0.94125,0 1.39,0 0.44875,0 0.8975,0 1.345,0 0.44875,0 0.9425,0.0525 1.39,0.0525 0.44875,0.0537 0.9425,0 1.39125,0 0.4475,0.0537 0.89625,0.0537 1.39,0.0537 0.4475,0.0538 0.94125,0 1.39,0 0.44875,0 0.85125,0 1.345,0 0.44875,0.0538 0.8975,0.0538 1.39,0.0538 0.44875,0.0537 0.8975,0 1.345,0 0.49375,0.0537 0.9425,0.0537 1.39125,0.10625 0.4925,0 0.94125,0 1.39,0.0537 0.4925,0 0.94125,-0.0537 1.39,0 0.44875,0 0.89625,0 1.345,0.0537 0.44875,0 0.9425,0.0538 1.39,0.0538 0.44875,0 0.9425,0 1.39,0 0.44875,0 0.9425,0 1.39125,0.0525 0.4475,0 0.94125,0.0537 1.39,0.0537 0.4475,0 0.89625,0 1.345,0 0.44875,0 0.89625,0.1075 1.39,0.1075 0.44875,0 0.8975,0 1.39,0 0.44875,0 0.8975,0.0525 1.39,0.0525 0.44875,0 0.8525,0.0537 1.30125,0.0537 0.4925,0 0.94125,0.0537 1.39,0.0537 0.4925,0.0538 0.94125,0.0538 1.39,0.0538 0.49375,0.0525 0.94125,0.0525 1.39,0.0525 0.49375,0.0537 0.94125,0.0537 1.39,0.0537 0.44875,0.0537 0.8975,0 1.345,0 0.44875,0.0537 0.9425,0.0537 1.39125,0.0537 0.4475,0.0538 0.94125,0.0538 1.39,0.10625 0.4475,0 0.89625,0 1.39,0.0538 0.44875,0 0.94125,0 1.39,0.0537 0.44875,0 0.8525,-0.0537 1.345,0 0.44875,0 0.8975,0 1.39,0.0538 0.44875,0 0.8975,0 1.34625,0.0525 0.4925,0 0.94125,0.0538 1.39,0.0538 0.4925,0 0.94125,0.0537 1.39,0.0537 0.44875,0 0.89625,0 1.345,0 0.44875,0 0.9425,0.0537 1.39,0.0537 0.44875,0 0.9425,0.0525 1.39,0.0525 0.44875,0 0.9425,0.0538 1.39125,0.0538 0.4475,0 0.89625,0 1.345,0 0.44875,0 0.89625,0.0537 1.39,0.0537 0.44875,0 0.89625,0 1.39,0 0.44875,0 0.8975,0.0537 1.39,0.0537 0.44875,0 0.8975,0 1.39,0 0.44875,0 0.8975,0.0525 1.39,0.0525 0.44875,0.0538 0.8525,0 1.30125,0 0.4925,0.0538 0.94125,0.0538 1.39,0.0538 0.49375,0.0537 0.94125,0 1.39,0 0.49375,0.0537 0.94125,0.0537 1.39,0.0537 0.49375,0.0537 0.9425,0 1.39,0 0.44875,0 0.8975,0 1.34625,0 0.4475,0.0537 0.94125,0.0537 1.39,0.10625 0.4475,0 0.94125,0 1.39,0 0.44875,0 0.89625,-0.0525 1.39,0 0.44875,0 0.8975,0 1.39,0.0537 0.44875,0 0.9425,0 1.39,0 0.44875,0 0.8525,-0.0537 1.34625,0 0.4475,0 0.89625,0 1.345,0.0538 0.4925,0 0.94125,0 1.39,0 0.49375,0 0.94125,-0.0538 1.39,0 0.49375,0 0.94125,0.0525 1.39,0.0525 0.44875,0 0.8975,0 1.345,0 0.44875,0 0.9425,0 1.39125,0 0.4475,0 0.94125,0 1.39,0 0.4475,0 0.94125,0.0537 1.39,0.0537 0.44875,0 0.89625,0 1.345,0 0.44875,0 0.8975,0 1.39,0 0.44875,0 0.8975,0.0537 1.39,0.0537 0.44875,0 0.8975,0 1.39,0 0.44875,0 0.8975,0 1.39125,0 0.4475,0 0.85125,0.0538 1.3,0.0538 0.49375,0 0.94125,0 1.39,0 0.49375,0 0.94125,0 1.39,0 0.49375,0 0.9425,0.0525 1.39,0.0525 0.49375,0 0.9425,0 1.39,0 0.44875,0 0.8975,0 1.34625,0 0.44875,0 0.94125,0.0537 1.39,0.0537 0.44875,0 0.94125,0 1.39,0 0.44875,0 0.8975,0 1.39,0 0.44875,0 0.9425,0.0537 1.39,0.0537 0.44875,0 0.8525,0 1.34625,0 0.4475,0 0.89625,0 1.39,0 0.4475,0 0.89625,0.0538 1.345,0.0538 0.49375,0 0.94125,0 1.39,0 0.49375,0 0.94125,0 1.39,0 0.44875,0 0.8975,0.0525 1.345,0.0525 0.44875,0 0.9425,0 1.39125,0 0.4475,0 0.94125,0.0537 1.39,0.0537 0.4475,0.0537 0.94125,0 1.39,0 0.44875,0.0537 0.94125,0.0537 1.39,0.0537 0.44875,0.0538 0.94125,0 1.39,0 0.44875,0 0.8975,0 1.345,0 0.44875,0.0538 0.8975,0.0538 1.39,0.0538 0.44875,0.0525 0.8975,0 1.39125,0 0.4475,0.0525 0.89625,0.0525 1.39,0.10625 0.4475,0 0.89625,-0.0538 1.345,0 0.49375,0 0.8975,0 1.345,0.0537 0.44875,0 0.9425,-0.0537 1.39,0 0.49375,0 0.9425,0 1.39125,0.0538 0.4925,0 0.94125,0 1.39,0 0.4475,0 0.94125,-0.0538 1.39,0 0.44875,0 0.89625,0 1.345,0.0525 0.44875,0 0.94125,0.0538 1.39,0.0538 0.44875,0 0.8975,0 1.39,0 0.44875,0 0.9425,0.0537 1.39,0.0537 0.44875,0 0.8525,0 1.34625,0 0.4475,0 0.89625,0.0537 1.39,0.0537 0.44875,0 0.89625,0 1.345,0 0.49375,0 0.94125,0.0525 1.39,0.0525 0.49375,0 0.9425,0.0538 1.39,0.0538 0.44875,0 0.8975,0 1.34625,0 0.4475,0 0.94125,0.0537 1.39,0.0537 0.4475,0 0.94125,0.0537 1.39,0.0537 0.44875,0.0525 0.94125,0.0525 1.39,0.0525 0.44875,0 0.94125,0 1.39,0 0.44875,0 0.8975,0.0538 1.345,0.0538 0.44875,0.0537 0.8975,0.0537 1.39,0.0537 0.44875,0.0537 0.8975,0.0537 1.39125,0.0537 0.4475,0.0525 0.89625,0.0525 1.39,0.10625 0.44875,0 0.89625,0 1.39,0.0538 0.44875,0 0.8525,0 1.3,0.0537 0.49375,0 0.9425,0.0525 1.39,0.0525 0.49375,0 0.9425,0 1.39125,0 0.4925,0 0.94125,0 1.39,0.0537 0.4925,0 0.94125,0.0538 1.39,0.0538 0.44875,0 0.89625,0.0537 1.345,0.0537 0.44875,0 0.94125,0.0525 1.39,0.0525 0.44875,0 0.9425,0.0537 1.39,0.0537 0.44875,0 0.8975,0.0538 1.39,0.0538 0.44875,0 0.8975,0.0537 1.39125,0.0537 0.4475,0.0525 0.94125,0.0525 1.39,0.0525 0.4475,0.0537 0.85125,0.0537 1.345,0.0537 0.44875,0.0538 0.89625,0.0538 1.345,0.0538 0.49375,0.0525 0.9425,0.0525 1.39,0.0525 0.49375,0.0538 0.9425,0.0538 1.39,0.1075 0.49375,0 0.9425,0 1.39125,0.0538 0.4475,0 0.89625,0.0525 1.345,0.10625 0.44875,0 0.94125,0 1.39,0.0537 0.44875,0 0.94125,0.0537 1.39,0.0537 0.44875,0 0.94125,0.0525 1.39,0.0525 0.44875,0 0.9425,0 1.39,0.0538 0.44875,0.0537 0.8975,0.1075 1.34625,0.1075 0.4475,0.0525 0.89625,0.0525 1.39,0.0525 0.44875,0.0538 0.89625,0.1075 1.39,0.1075 0.44875,0.0537 0.89625,0.0537 1.39,0.0537 0.44875,0.0525 0.8975,0.10625 1.345,0.16 0.49375,0 0.8975,0 1.34625,0.0537 0.4475,0 0.94125,0.0525 1.39,0.10625 0.4925,0 0.94125,0.0538 1.39,0.1075 0.4925,0 0.94125,0 1.39,0.0525 0.44875,0 0.89625,0.1075 1.345,0.1075 0.44875,0.0537 0.9425,0.0537 1.39,0.0537 0.44875,0 0.9425,0.0525 1.39,0.0525 0.44875,0.0537 0.8975,0.1075 1.39125,0.1075 0.4475,0.0537 0.94125,0.10625 1.39,0.10625 0.4475,0.0537 0.85125,0.0537 1.345,0.1075 0.44875,0 0.89625,0.0537 1.39,0.10625 0.44875,0.0537 0.8975,0.1075 1.345,0.16125 0.49375,0.0525 0.9425,0.0525 1.39,0.10625 0.49375,0.0537 0.9425,0.0537 1.39125,0.1075 0.4475,0.0525 0.89625,0.0525 1.345,0.10625 0.44875,0.0537 0.94125,0.16 1.39,0.16 0.44875,0.0538 0.94125,0.1075 1.39,0.16 0.44875,0 0.9425,0.0537 1.39,0.1075 0.44875,0 0.9425,0.0537 1.39,0.10625 0.44875,0.0537 0.8975,0.0537 1.34625,0.1075 0.4475,0.0537 0.89625,0.10625 1.39,0.10625 0.44875,0.0537 0.89625,0.0537 1.39,0.0537 0.44875,0.0538 0.89625,0.0538 1.39,0.0538 0.44875,0.0537 0.8975,0.0537 1.39,0.0537 0.44875,0.0525 0.8975,0.0525 1.345,0.0525 0.49375,0.0537 0.8975,0.1075 1.34625,0.16125 0.4475,0 0.94125,0 1.39,0.0525 0.4925,0 0.94125,0 1.39,0.0537 0.49375,0 0.94125,0 1.39,0.0537 0.44875,0 0.94125,0.0538 1.39,0.10625 0.44875,0 0.8975,0 1.345,0.0537 0.44875,0 0.9425,0.0537 1.39125,0.1075 0.4475,0.0525 0.89625,0.0525 1.39,0.10625 0.4475,0.0537 0.89625,0.0537 1.39,0.1075 0.44875,0.0525 0.94125,0.10625 1.39,0.21375 0.44875,0.0525 0.8525,0.10625 1.345,0.21375 0.44875,0.0525 0.8975,0.16 1.34625,0.26625 0.4925,0.1075 0.94125,0.16 1.39,0.2675 0.4925,0.16 0.94125,0.2675 1.39,0.4275 0.4925,0.10625 0.94125,0.21375 1.39,0.37375 0.44875,0.16 0.89625,0.4275 1.345,0.5875 0.44875,0.21375 0.8975,0.375 1.345,0.5875 0.44875,0.16125 0.8525,0.4275 1.25625,0.58875 0.40375,0.21375 0.8075,0.4275 1.12125,0.5875 0.35875,0.21375 0.6275,0.37375 0.98625,0.5875 0.31375,0.21375 0.6725,0.4275 0.98625,0.64125 0.31375,0.16 0.6725,0.4275 0.9425,0.5875 0.31375,0.21375 0.6275,0.37375 0.89625,0.5875 0.26875,0.21375 0.49375,0.4275 0.7625,0.64125 0.22375,0.16125 0.49375,0.375 0.7625,0.535 0.22375,0.21375 0.44875,0.37375 0.7175,0.5875 0.22375,0.21375 0.44875,0.4275 0.7175,0.64125 0.22375,0.21375 0.49375,0.4275 0.7175,0.5875 0.22375,0.21375 0.35875,0.4275 0.5825,0.64125 0.18,0.21375 0.40375,0.4275 0.58375,0.64125 0.22375,0.21375 0.4475,0.37375 0.6275,0.5875 0.22375,0.16 0.40375,0.4275 0.5825,0.5875 0.18,0.21375 0.31375,0.37375 0.49375,0.5875 0.17875,0.21375 0.40375,0.48125 0.5825,0.695 0.135,0.21375 0.31375,0.4275 0.44875,0.64125 0.18,0.16 0.31375,0.37375 0.49375,0.535 0.13375,0.21375 0.31375,0.37375 0.4925,0.5875 0.135,0.21375 0.225,0.4275 0.35875,0.64125 0.135,0.21375 0.31375,0.4275 0.44875,0.5875 0.135,0.21375 0.22375,0.37375 0.35875,0.5875 0.135,0.21375 0.26875,0.48125 0.40375,0.695 0.135,0.21375 0.26875,0.37375 0.40375,0.53375 0.13375,0.21375 0.22375,0.4275 0.35875,0.64125 0.09,0.21375 0.22375,0.4275 0.31375,0.64125 0.135,0.21375 0.22375,0.4275 0.35875,0.64125 0.09,0.21375 0.22375,0.37375 0.31375,0.5875 0.135,0.21375 0.18,0.4275 0.31375,0.64125 0.09,0.21375 0.18,0.4275 0.26875,0.64125 0.09,0.21375 0.225,0.37375 0.27,0.5875 0.0887,0.16 0.13375,0.4275 0.22375,0.5875 0.045,0.21375 0.18,0.375 0.26875,0.58875 0.09,0.21375 0.18,0.48 0.225,0.69375 0.0888,0.21375 0.17875,0.37375 0.26875,0.535 0.09,0.21375 0.135,0.4275 0.22375,0.64125 0.09,0.21375 0.135,0.4275 0.18,0.64125 0.09,0.21375 0.13375,0.42625 0.22375,0.64125 0.045,0.16 0.09,0.37375 0.18,0.53375 0.045,0.21375 0.13375,0.4275 0.17875,0.64125 0.09,0.21375 0.135,0.4275 0.18,0.64125 0.09,0.21375 0.13375,0.48125 0.22375,0.69375 0.045,0.16125 0.09,0.32125 0.135,0.535 0.045,0.21375 0.0888,0.4275 0.13375,0.64125 0.045,0.21375 0.09,0.4275 0.135,0.64125 0.045,0.21375 0.09,0.48 0.135,0.64125 0.0888,0.21375 0.13375,0.37375 0.17875,0.5875 0.045,0.21375 0.045,0.4275 0.09,0.695 0.045,0.26625 0.13375,0.5875 0.17875,0.80125 0.045,0.21375 0.045,0.37375 0.09,0.5875 0.045,0.16 0.045,0.37375 0.09,0.5875 0.045,0.21375 0.13375,0.48125 0.17875,0.695 0,0.21375 0,0.48125 0.045,0.69375 0,0.21375 0.045,0.4275 0.09,0.695 0,0.21375 0.045,0.535 0.09,0.80125 0.045,0.21375 0.045,0.4275 0.09,0.64125 0.0437,0.2675 0.0437,0.48125 0.0888,0.695 0.045,0.2675 0.09,0.48125 0.09,0.7475 0.045,0.2675 0.09,0.695 0.09,0.9625 0.045,0.26625 0.0888,0.37375 0.13375,0.64125 0,0.26625 0.045,0.5875 0.09,0.855 0,0.26625 0,0.4275 0.045,0.69375 0,0.21375 0,0.4275 0.045,0.74875 0,0.26625 0.09,0.69375 0.09,1.015 0,0.2675 -0.045,0.53375 0,0.80125 0,0.2675 0.0888,0.53375 0.13375,0.855 0.045,0.32 0.045,0.80125 0.045,1.1225 0.045,0.32 0.045,0.5875 0.045,0.9075 0.045,0.32125 0.045,0.695 0.045,0.9625 0.045,0.26625 0.09,0.48 0.09,0.69375 0.0437,0.21375 0,0.37375 0,0.695 0.0437,0.2675 0.0888,0.695 0.13375,1.06875 0,0.37375 0,0.80125 0.045,1.06875 0,0.32 0,0.53375 0.045,0.80125 0,0.2675 0,0.53375 0.045,0.855 0,0.37375 0,0.855 0.045,1.2825 0,0.4275 0.045,0.96125 0.09,1.335 0.0438,0.4275 0.0438,0.64125 0.0438,0.90875 0,0.32 0.045,0.5875 0.045,1.015 0,0.37375 0.045,1.015 0.045,1.49625 0.045,0.53375 0.045,1.175 0.045,1.6025 0.045,0.48125 0.09,0.74875 0.09,1.17625 0.045,0.37375 0,0.64125 0,1.12125 0.045,0.48125 0.045,1.39 0.045,1.76375 0.0437,0.37375 0.0437,0.2675 0.0888,0.5875 0,0.2675 0,0.855 0.045,1.175 0,0.32125 -0.045,0.4275 0,0.64125 0,0.21375 0,0.4275 0.045,0.64125 0,0.16 0.045,0.4275 0.045,0.535"
     id="path81798"
     style="fill:none;stroke:#ff0000;stroke-width:3;stroke-linecap:butt;stroke-linejoin:miter;stroke-miterlimit:3.52800012;stroke-opacity:1;stroke-dasharray:none" />
  <path
     d="m 51.07713,191.70875 0,-144.155"
     id="path84720"
     style="fill:none;stroke:#000000;stroke-width:0.16435999;stroke-linecap:butt;stroke-linejoin:round;stroke-miterlimit:3.52800012;stroke-opacity:1;stroke-dasharray:none" />
  <path
     d="m 51.07713,191.70875 3.4525,0"
     id="path84722"
     style="fill:none;stroke:#000000;stroke-width:0.16435999;stroke-linecap:butt;stroke-linejoin:round;stroke-miterlimit:3.52800012;stroke-opacity:1;stroke-dasharray:none" />
  <path
     d="m 51.07713,173.7025 3.4525,0"
     id="path84724"
     style="fill:none;stroke:#000000;stroke-width:0.16435999;stroke-linecap:butt;stroke-linejoin:round;stroke-miterlimit:3.52800012;stroke-opacity:1;stroke-dasharray:none" />
  <path
     d="m 51.07713,155.69625 3.4525,0"
     id="path84726"
     style="fill:none;stroke:#000000;stroke-width:0.16435999;stroke-linecap:butt;stroke-linejoin:round;stroke-miterlimit:3.52800012;stroke-opacity:1;stroke-dasharray:none" />
  <path
     d="m 51.07713,137.69125 3.4525,0"
     id="path84728"
     style="fill:none;stroke:#000000;stroke-width:0.16435999;stroke-linecap:butt;stroke-linejoin:round;stroke-miterlimit:3.52800012;stroke-opacity:1;stroke-dasharray:none" />
  <path
     d="m 51.07713,47.55375 3.4525,0"
     id="path84738"
     style="fill:none;stroke:#000000;stroke-width:0.16435999;stroke-linecap:butt;stroke-linejoin:round;stroke-miterlimit:3.52800012;stroke-opacity:1;stroke-dasharray:none" />
  <path
     d="m 51.07713,191.70875 372.17,0"
     id="path84740"
     style="fill:none;stroke:#000000;stroke-width:0.16435999;stroke-linecap:butt;stroke-linejoin:round;stroke-miterlimit:3.52800012;stroke-opacity:1;stroke-dasharray:none" />
  <path
     d="m 51.07713,187.595 0,4.11375"
     id="path84742"
     style="fill:none;stroke:#000000;stroke-width:0.16435999;stroke-linecap:butt;stroke-linejoin:round;stroke-miterlimit:3.52800012;stroke-opacity:1;stroke-dasharray:none" />
  <path
     d="m 94.21713,187.595 0,4.11375"
     id="path84744"
     style="fill:none;stroke:#000000;stroke-width:0.16435999;stroke-linecap:butt;stroke-linejoin:round;stroke-miterlimit:3.52800012;stroke-opacity:1;stroke-dasharray:none" />
  <path
     d="m 137.31213,187.595 0,4.11375"
     id="path84746"
     style="fill:none;stroke:#000000;stroke-width:0.16435999;stroke-linecap:butt;stroke-linejoin:round;stroke-miterlimit:3.52800012;stroke-opacity:1;stroke-dasharray:none" />
  <path
     d="m 180.45213,187.595 0,4.11375"
     id="path84748"
     style="fill:none;stroke:#000000;stroke-width:0.16435999;stroke-linecap:butt;stroke-linejoin:round;stroke-miterlimit:3.52800012;stroke-opacity:1;stroke-dasharray:none" />
  <path
     d="m 223.59213,187.595 0,4.11375"
     id="path84750"
     style="fill:none;stroke:#000000;stroke-width:0.16435999;stroke-linecap:butt;stroke-linejoin:round;stroke-miterlimit:3.52800012;stroke-opacity:1;stroke-dasharray:none" />
  <path
     d="m 266.73213,187.595 0,4.11375"
     id="path84752"
     style="fill:none;stroke:#000000;stroke-width:0.16435999;stroke-linecap:butt;stroke-linejoin:round;stroke-miterlimit:3.52800012;stroke-opacity:1;stroke-dasharray:none" />
  <path
     d="m 309.87213,187.595 0,4.11375"
     id="path84754"
     style="fill:none;stroke:#000000;stroke-width:0.16435999;stroke-linecap:butt;stroke-linejoin:round;stroke-miterlimit:3.52800012;stroke-opacity:1;stroke-dasharray:none" />
  <path
     d="m 353.01213,187.595 0,4.11375"
     id="path84756"
     style="fill:none;stroke:#000000;stroke-width:0.16435999;stroke-linecap:butt;stroke-linejoin:round;stroke-miterlimit:3.52800012;stroke-opacity:1;stroke-dasharray:none" />
  <path
     d="m 396.10713,187.595 0,4.11375"
     id="path84758"
     style="fill:none;stroke:#000000;stroke-width:0.16435999;stroke-linecap:butt;stroke-linejoin:round;stroke-miterlimit:3.52800012;stroke-opacity:1;stroke-dasharray:none" />
  <text
     x="-177.97174"
     y="19.153088"
     transform="matrix(0,-1,1,0,0,0)"
     id="text163572"
     xml:space="preserve"
     style="font-size:14px;font-style:normal;font-weight:normal;line-height:125%;letter-spacing:0px;word-spacing:0px;fill:#000000;fill-opacity:1;stroke:none;font-family:Sans;-inkscape-font-specification:Sans"><tspan
       x="-177.97174"
       y="19.153088"
       id="tspan163574">Cell voltage [V]</tspan></text>
  <text
     x="147.93349"
     y="31.95907"
     id="text163572-3"
     xml:space="preserve"
     style="font-size:16px;font-style:normal;font-weight:normal;line-height:125%;letter-spacing:0px;word-spacing:0px;fill:#000000;fill-opacity:1;stroke:none;font-family:Sans;-inkscape-font-specification:Sans"><tspan
       x="147.93349"
       y="31.95907"
       id="tspan163574-6">LiFePO<tspan
   id="tspan164759"
   style="font-size:65.00091553%;baseline-shift:sub">4</tspan> with 2.3Ah</tspan></text>
  <text
     x="181.73569"
     y="233.58069"
     id="text163572-7"
     xml:space="preserve"
     style="font-size:14px;font-style:normal;font-weight:normal;line-height:125%;letter-spacing:0px;word-spacing:0px;fill:#000000;fill-opacity:1;stroke:none;font-family:Sans;-inkscape-font-specification:Sans"><tspan
       x="181.73569"
       y="233.58069"
       id="tspan163574-5">Charge [Ah]</tspan></text>
  <rect
     width="115"
     height="45"
     ry="10"
     x="166.09213"
     y="111.93206"
     id="rect164468"
     style="fill:#ececec;fill-rule:evenodd;stroke:#000000;stroke-width:0.30000001;stroke-linecap:butt;stroke-linejoin:miter;stroke-miterlimit:4;stroke-opacity:1;stroke-dasharray:none" />
  <text
     x="206.8028"
     y="131.22644"
     id="text164386"
     xml:space="preserve"
     style="font-size:14px;font-style:normal;font-weight:normal;line-height:125%;letter-spacing:0px;word-spacing:0px;fill:#000000;fill-opacity:1;stroke:none;font-family:Sans;-inkscape-font-specification:Sans"><tspan
       x="206.8028"
       y="131.22644"
       id="tspan164388">Charge</tspan></text>
  <text
     x="206.2149"
     y="146.94476"
     id="text164390"
     xml:space="preserve"
     style="font-size:14px;font-style:normal;font-weight:normal;line-height:125%;letter-spacing:0px;word-spacing:0px;fill:#000000;fill-opacity:1;stroke:none;font-family:Sans;-inkscape-font-specification:Sans"><tspan
       x="206.2149"
       y="146.94476"
       id="tspan164392">Discharge</tspan></text>
  <path
     d="m 201.1786,127.0695 -30,0"
     id="path164396"
     style="color:#000000;fill:none;stroke:#00ff00;stroke-width:3;stroke-linecap:butt;stroke-linejoin:miter;stroke-miterlimit:3.52800012;stroke-opacity:1;stroke-dasharray:none;stroke-dashoffset:0;marker:none;visibility:visible;display:inline;overflow:visible;enable-background:accumulate" />
  <path
     d="m 201.22959,142.0695 -30,0"
     id="path164396-3"
     style="color:#000000;fill:none;stroke:#ff0000;stroke-width:3;stroke-linecap:butt;stroke-linejoin:miter;stroke-miterlimit:3.52800012;stroke-opacity:1;stroke-dasharray:none;stroke-dashoffset:0;marker:none;visibility:visible;display:inline;overflow:visible;enable-background:accumulate" />
  <text
     x="46.270855"
     y="206.27075"
     id="text164479"
     xml:space="preserve"
     style="font-size:13px;font-style:normal;font-weight:normal;line-height:125%;letter-spacing:0px;word-spacing:0px;fill:#000000;fill-opacity:1;stroke:none;font-family:Sans;-inkscape-font-specification:Sans"><tspan
       x="46.270855"
       y="206.27075"
       id="tspan164481">0</tspan></text>
  <text
     x="83.965668"
     y="206.27075"
     id="text164483"
     xml:space="preserve"
     style="font-size:13px;font-style:normal;font-weight:normal;line-height:125%;letter-spacing:0px;word-spacing:0px;fill:#000000;fill-opacity:1;stroke:none;font-family:Sans;-inkscape-font-specification:Sans"><tspan
       x="83.965668"
       y="206.27075"
       id="tspan164485">0.3</tspan></text>
  <text
     x="126.94958"
     y="206.27075"
     id="text164487"
     xml:space="preserve"
     style="font-size:13px;font-style:normal;font-weight:normal;line-height:125%;letter-spacing:0px;word-spacing:0px;fill:#000000;fill-opacity:1;stroke:none;font-family:Sans;-inkscape-font-specification:Sans"><tspan
       x="126.94958"
       y="206.27075"
       id="tspan164489">0.6</tspan></text>
  <text
     x="170.13718"
     y="206.27075"
     id="text164491"
     xml:space="preserve"
     style="font-size:13px;font-style:normal;font-weight:normal;line-height:125%;letter-spacing:0px;word-spacing:0px;fill:#000000;fill-opacity:1;stroke:none;font-family:Sans;-inkscape-font-specification:Sans"><tspan
       x="170.13718"
       y="206.27075"
       id="tspan164493">0.9</tspan></text>
  <text
     x="213.18515"
     y="206.27075"
     id="text164495"
     xml:space="preserve"
     style="font-size:13px;font-style:normal;font-weight:normal;line-height:125%;letter-spacing:0px;word-spacing:0px;fill:#000000;fill-opacity:1;stroke:none;font-family:Sans;-inkscape-font-specification:Sans"><tspan
       x="213.18515"
       y="206.27075"
       id="tspan164497">1.2</tspan></text>
  <text
     x="256.24265"
     y="206.27075"
     id="text164499"
     xml:space="preserve"
     style="font-size:13px;font-style:normal;font-weight:normal;line-height:125%;letter-spacing:0px;word-spacing:0px;fill:#000000;fill-opacity:1;stroke:none;font-family:Sans;-inkscape-font-specification:Sans"><tspan
       x="256.24265"
       y="206.27075"
       id="tspan164501">1.5</tspan></text>
  <text
     x="299.25885"
     y="206.27075"
     id="text164503"
     xml:space="preserve"
     style="font-size:13px;font-style:normal;font-weight:normal;line-height:125%;letter-spacing:0px;word-spacing:0px;fill:#000000;fill-opacity:1;stroke:none;font-family:Sans;-inkscape-font-specification:Sans"><tspan
       x="299.25885"
       y="206.27075"
       id="tspan164505">1.8</tspan></text>
  <text
     x="342.79242"
     y="206.27075"
     id="text164507"
     xml:space="preserve"
     style="font-size:13px;font-style:normal;font-weight:normal;line-height:125%;letter-spacing:0px;word-spacing:0px;fill:#000000;fill-opacity:1;stroke:none;font-family:Sans;-inkscape-font-specification:Sans"><tspan
       x="342.79242"
       y="206.27075"
       id="tspan164509">2.1</tspan></text>
  <text
     x="385.65256"
     y="206.27075"
     id="text164511"
     xml:space="preserve"
     style="font-size:13px;font-style:normal;font-weight:normal;line-height:125%;letter-spacing:0px;word-spacing:0px;fill:#000000;fill-opacity:1;stroke:none;font-family:Sans;-inkscape-font-specification:Sans"><tspan
       x="385.65256"
       y="206.27075"
       id="tspan164513">2.4</tspan></text>
  <text
     x="28.493023"
     y="196.35522"
     id="text164515"
     xml:space="preserve"
     style="font-size:13px;font-style:normal;font-weight:normal;line-height:125%;letter-spacing:0px;word-spacing:0px;fill:#000000;fill-opacity:1;stroke:none;font-family:Sans;-inkscape-font-specification:Sans"><tspan
       x="28.493023"
       y="196.35522"
       id="tspan164517">1.5</tspan></text>
  <text
     x="28.245464"
     y="178.43469"
     id="text164519"
     xml:space="preserve"
     style="font-size:13px;font-style:normal;font-weight:normal;line-height:125%;letter-spacing:0px;word-spacing:0px;fill:#000000;fill-opacity:1;stroke:none;font-family:Sans;-inkscape-font-specification:Sans"><tspan
       x="28.245464"
       y="178.43469"
       id="tspan164521">1.8</tspan></text>
  <text
     x="28.556499"
     y="160.52048"
     id="text164523"
     xml:space="preserve"
     style="font-size:13px;font-style:normal;font-weight:normal;line-height:125%;letter-spacing:0px;word-spacing:0px;fill:#000000;fill-opacity:1;stroke:none;font-family:Sans;-inkscape-font-specification:Sans"><tspan
       x="28.556499"
       y="160.52048"
       id="tspan164525">2.1</tspan></text>
  <text
     x="28.086773"
     y="142.51547"
     id="text164527"
     xml:space="preserve"
     style="font-size:13px;font-style:normal;font-weight:normal;line-height:125%;letter-spacing:0px;word-spacing:0px;fill:#000000;fill-opacity:1;stroke:none;font-family:Sans;-inkscape-font-specification:Sans"><tspan
       x="28.086773"
       y="142.51547"
       id="tspan164529">2.4</tspan></text>
  <text
     x="28.467632"
     y="124.50921"
     id="text164531"
     xml:space="preserve"
     style="font-size:13px;font-style:normal;font-weight:normal;line-height:125%;letter-spacing:0px;word-spacing:0px;fill:#000000;fill-opacity:1;stroke:none;font-family:Sans;-inkscape-font-specification:Sans"><tspan
       x="28.467632"
       y="124.50921"
       id="tspan164533">2.7</tspan></text>
  <text
     x="28.220074"
     y="106.35717"
     id="text164535"
     xml:space="preserve"
     style="font-size:13px;font-style:normal;font-weight:normal;line-height:125%;letter-spacing:0px;word-spacing:0px;fill:#000000;fill-opacity:1;stroke:none;font-family:Sans;-inkscape-font-specification:Sans"><tspan
       x="28.220074"
       y="106.35717"
       id="tspan164537">3.0</tspan></text>
  <text
     x="28.397808"
     y="88.350914"
     id="text164539"
     xml:space="preserve"
     style="font-size:13px;font-style:normal;font-weight:normal;line-height:125%;letter-spacing:0px;word-spacing:0px;fill:#000000;fill-opacity:1;stroke:none;font-family:Sans;-inkscape-font-specification:Sans"><tspan
       x="28.397808"
       y="88.350914"
       id="tspan164541">3.3</tspan></text>
  <text
     x="28.17564"
     y="70.344688"
     id="text164543"
     xml:space="preserve"
     style="font-size:13px;font-style:normal;font-weight:normal;line-height:125%;letter-spacing:0px;word-spacing:0px;fill:#000000;fill-opacity:1;stroke:none;font-family:Sans;-inkscape-font-specification:Sans"><tspan
       x="28.17564"
       y="70.344688"
       id="tspan164545">3.6</tspan></text>
  <text
     x="28.270855"
     y="52.285915"
     id="text164547"
     xml:space="preserve"
     style="font-size:13px;font-style:normal;font-weight:normal;line-height:125%;letter-spacing:0px;word-spacing:0px;fill:#000000;fill-opacity:1;stroke:none;font-family:Sans;-inkscape-font-specification:Sans"><tspan
       x="28.270855"
       y="52.285915"
       id="tspan164549">3.9</tspan></text>
</svg>
